<svg id="Слой_1" data-name="Слой 1" xmlns="http://www.w3.org/2000/svg" viewBox="0 0 21.5 11.5"><defs><style>.cls-1,.cls-2{fill:#003682;}.cls-1{fill-rule:evenodd;}</style></defs><path class="cls-1" d="M6,5.25a4.25,4.25,0,0,0,0,8.5,3.26,3.26,0,0,0,1.41-.28,3,3,0,0,0,1-.82A14.71,14.71,0,0,0,10,9.91l.37-.75c.12-.23.23-.46.34-.69A16.15,16.15,0,0,1,12.45,5.4a4.4,4.4,0,0,1,1.49-1.21A4.52,4.52,0,0,1,16,3.75,5.75,5.75,0,1,1,12.55,14.1a.75.75,0,1,1,.9-1.2A4.25,4.25,0,1,0,16,5.25a3.23,3.23,0,0,0-1.41.28,3,3,0,0,0-1,.82A14.71,14.71,0,0,0,12,9.09l-.37.75c-.12.23-.23.46-.34.69A16.15,16.15,0,0,1,9.55,13.6a4.4,4.4,0,0,1-1.49,1.21A4.52,4.52,0,0,1,6,15.25,5.75,5.75,0,1,1,9.45,4.9a.75.75,0,1,1-.9,1.2A4.25,4.25,0,0,0,6,5.25Z" transform="translate(-0.25 -3.75)"/><rect class="cls-2" x="4" y="5" width="3" height="1"/><rect class="cls-2" x="15" y="5" width="3" height="1"/><rect class="cls-2" x="16" y="4" width="1" height="3"/></svg>