<svg width="246" height="60" viewBox="0 0 246 60" fill="none" xmlns="http://www.w3.org/2000/svg">
<path d="M15.3765 20L15.3556 10.3193L10.557 18.3309H9.34691L4.54827 10.4445V20H1.96118V5.39545H4.19359L9.99368 15.0762L15.6895 5.39545H17.9219L17.9427 20H15.3765ZM31.3597 16.6201H24.0574L22.6178 20H19.8221L26.3941 5.39545H29.0647L35.6576 20H32.8201L31.3597 16.6201ZM30.4625 14.492L27.7085 8.10773L24.9754 14.492H30.4625ZM37.5149 5.39545H40.2272V20H37.5149V5.39545ZM57.1546 5.39545V20H54.9222L46.8689 10.1106V20H44.1774V5.39545H46.4099L54.4632 15.2848V5.39545H57.1546ZM71.3615 20.2086C70.2348 20.2086 69.143 20.0487 68.0859 19.7288C67.0427 19.4089 66.2151 18.9846 65.6031 18.4561L66.542 16.3489C67.1401 16.8218 67.8703 17.2112 68.7326 17.5172C69.6089 17.8093 70.4852 17.9554 71.3615 17.9554C72.4464 17.9554 73.2531 17.7815 73.7816 17.4338C74.3241 17.086 74.5953 16.627 74.5953 16.0568C74.5953 15.6395 74.4423 15.2987 74.1363 15.0345C73.8442 14.7563 73.4687 14.5407 73.0097 14.3877C72.5507 14.2347 71.9248 14.0608 71.132 13.8661C70.0192 13.6018 69.1151 13.3375 68.4197 13.0733C67.7381 12.809 67.147 12.3987 66.6463 11.8423C66.1595 11.272 65.9161 10.507 65.9161 9.54732C65.9161 8.74059 66.1316 8.01036 66.5628 7.35664C67.0079 6.689 67.6686 6.16045 68.5449 5.771C69.4351 5.38154 70.52 5.18682 71.7996 5.18682C72.6898 5.18682 73.5661 5.29809 74.4284 5.52064C75.2908 5.74318 76.0349 6.06309 76.6608 6.48036L75.8054 8.58759C75.1656 8.21205 74.498 7.92691 73.8025 7.73218C73.1071 7.53745 72.4325 7.44009 71.7787 7.44009C70.7077 7.44009 69.908 7.62091 69.3794 7.98254C68.8648 8.34418 68.6075 8.82405 68.6075 9.42214C68.6075 9.83941 68.7535 10.1802 69.0456 10.4445C69.3516 10.7087 69.7341 10.9174 70.1931 11.0704C70.6521 11.2234 71.278 11.3972 72.0708 11.592C73.1557 11.8423 74.0459 12.1066 74.7414 12.3848C75.4368 12.649 76.028 13.0594 76.5148 13.6157C77.0155 14.1721 77.2659 14.9232 77.2659 15.869C77.2659 16.6757 77.0433 17.406 76.5982 18.0597C76.1671 18.7134 75.5064 19.235 74.6162 19.6245C73.726 20.0139 72.6411 20.2086 71.3615 20.2086ZM90.9087 17.7259V20H79.9553V5.39545H90.6166V7.66959H82.6676V11.4668H89.7195V13.6992H82.6676V17.7259H90.9087ZM96.895 7.69045H92.0546V5.39545H104.448V7.69045H99.6072V20H96.895V7.69045ZM109.649 7.69045H104.809V5.39545H117.202V7.69045H112.362V20H109.649V7.69045ZM119.238 5.39545H121.95V20H119.238V5.39545ZM138.877 5.39545V20H136.645L128.592 10.1106V20H125.9V5.39545H128.133L136.186 15.2848V5.39545H138.877ZM152.764 12.5308H155.33V18.3518C154.579 18.9499 153.702 19.4089 152.701 19.7288C151.699 20.0487 150.67 20.2086 149.613 20.2086C148.125 20.2086 146.783 19.8887 145.586 19.2489C144.39 18.5952 143.451 17.698 142.77 16.5575C142.088 15.417 141.748 14.1304 141.748 12.6977C141.748 11.2651 142.088 9.9785 142.77 8.83795C143.451 7.69741 144.39 6.80723 145.586 6.16741C146.797 5.51368 148.153 5.18682 149.655 5.18682C150.879 5.18682 151.992 5.3885 152.993 5.79186C153.994 6.19523 154.836 6.78636 155.518 7.56527L153.807 9.23436C152.694 8.12164 151.352 7.56527 149.78 7.56527C148.751 7.56527 147.833 7.78086 147.026 8.21205C146.233 8.64323 145.607 9.24827 145.148 10.0272C144.703 10.8061 144.481 11.6963 144.481 12.6977C144.481 13.6714 144.703 14.5476 145.148 15.3265C145.607 16.1055 146.233 16.7175 147.026 17.1625C147.833 17.6076 148.744 17.8302 149.759 17.8302C150.9 17.8302 151.901 17.5798 152.764 17.0791V12.5308ZM163.434 20.2086C162.308 20.2086 161.216 20.0487 160.159 19.7288C159.116 19.4089 158.288 18.9846 157.676 18.4561L158.615 16.3489C159.213 16.8218 159.943 17.2112 160.806 17.5172C161.682 17.8093 162.558 17.9554 163.434 17.9554C164.519 17.9554 165.326 17.7815 165.855 17.4338C166.397 17.086 166.668 16.627 166.668 16.0568C166.668 15.6395 166.515 15.2987 166.209 15.0345C165.917 14.7563 165.542 14.5407 165.083 14.3877C164.624 14.2347 163.998 14.0608 163.205 13.8661C162.092 13.6018 161.188 13.3375 160.493 13.0733C159.811 12.809 159.22 12.3987 158.719 11.8423C158.232 11.272 157.989 10.507 157.989 9.54732C157.989 8.74059 158.205 8.01036 158.636 7.35664C159.081 6.689 159.742 6.16045 160.618 5.771C161.508 5.38154 162.593 5.18682 163.873 5.18682C164.763 5.18682 165.639 5.29809 166.501 5.52064C167.364 5.74318 168.108 6.06309 168.734 6.48036L167.878 8.58759C167.239 8.21205 166.571 7.92691 165.876 7.73218C165.18 7.53745 164.505 7.44009 163.852 7.44009C162.781 7.44009 161.981 7.62091 161.452 7.98254C160.938 8.34418 160.68 8.82405 160.68 9.42214C160.68 9.83941 160.827 10.1802 161.119 10.4445C161.425 10.7087 161.807 10.9174 162.266 11.0704C162.725 11.2234 163.351 11.3972 164.144 11.592C165.229 11.8423 166.119 12.1066 166.814 12.3848C167.51 12.649 168.101 13.0594 168.588 13.6157C169.089 14.1721 169.339 14.9232 169.339 15.869C169.339 16.6757 169.116 17.406 168.671 18.0597C168.24 18.7134 167.579 19.235 166.689 19.6245C165.799 20.0139 164.714 20.2086 163.434 20.2086Z" fill="black"/>
<path d="M36.512 31.3727L29.184 53.7727H23.616L18.688 38.6047L13.6 53.7727H8.064L0.704 31.3727H6.08L11.136 47.1167L16.416 31.3727H21.216L26.336 47.2447L31.552 31.3727H36.512ZM56.75 49.6127V53.7727H39.406V31.3727H56.334V35.5327H44.558V40.3967H54.958V44.4287H44.558V49.6127H56.75ZM77.3228 42.1247C78.6028 42.53 79.6054 43.2127 80.3308 44.1727C81.0561 45.1114 81.4188 46.274 81.4188 47.6607C81.4188 49.6234 80.6508 51.138 79.1148 52.2047C77.6001 53.25 75.3814 53.7727 72.4588 53.7727H60.8748V31.3727H71.8188C74.5494 31.3727 76.6401 31.8954 78.0908 32.9407C79.5628 33.986 80.2988 35.4047 80.2988 37.1967C80.2988 38.2847 80.0321 39.2554 79.4988 40.1087C78.9868 40.962 78.2614 41.634 77.3228 42.1247ZM66.0268 35.2767V40.5567H71.1788C72.4588 40.5567 73.4294 40.3327 74.0908 39.8847C74.7521 39.4367 75.0828 38.7754 75.0828 37.9007C75.0828 37.026 74.7521 36.3754 74.0908 35.9487C73.4294 35.5007 72.4588 35.2767 71.1788 35.2767H66.0268ZM72.0748 49.8687C73.4401 49.8687 74.4641 49.6447 75.1468 49.1967C75.8508 48.7487 76.2028 48.0554 76.2028 47.1167C76.2028 45.2607 74.8268 44.3327 72.0748 44.3327H66.0268V49.8687H72.0748ZM101.766 54.1567C99.9953 54.1567 98.278 53.922 96.614 53.4527C94.9713 52.962 93.6487 52.3327 92.646 51.5647L94.406 47.6607C95.366 48.3647 96.5073 48.93 97.83 49.3567C99.1527 49.7834 100.475 49.9967 101.798 49.9967C103.27 49.9967 104.358 49.7834 105.062 49.3567C105.766 48.9087 106.118 48.322 106.118 47.5967C106.118 47.0634 105.905 46.626 105.478 46.2847C105.073 45.922 104.539 45.634 103.878 45.4207C103.238 45.2074 102.363 44.9727 101.254 44.7167C99.5473 44.3114 98.15 43.906 97.062 43.5007C95.974 43.0954 95.0353 42.4447 94.246 41.5487C93.478 40.6527 93.094 39.458 93.094 37.9647C93.094 36.6634 93.446 35.49 94.15 34.4447C94.854 33.378 95.91 32.5354 97.318 31.9167C98.7473 31.298 100.486 30.9887 102.534 30.9887C103.963 30.9887 105.361 31.1594 106.726 31.5007C108.091 31.842 109.286 32.3327 110.31 32.9727L108.71 36.9087C106.641 35.7354 104.571 35.1487 102.502 35.1487C101.051 35.1487 99.974 35.3834 99.27 35.8527C98.5873 36.322 98.246 36.9407 98.246 37.7087C98.246 38.4767 98.6407 39.0527 99.43 39.4367C100.241 39.7994 101.467 40.162 103.11 40.5247C104.817 40.93 106.214 41.3354 107.302 41.7407C108.39 42.146 109.318 42.786 110.086 43.6607C110.875 44.5354 111.27 45.7194 111.27 47.2127C111.27 48.4927 110.907 49.666 110.182 50.7327C109.478 51.778 108.411 52.61 106.982 53.2287C105.553 53.8474 103.814 54.1567 101.766 54.1567ZM132.156 49.6127V53.7727H114.812V31.3727H131.74V35.5327H119.964V40.3967H130.364V44.4287H119.964V49.6127H132.156ZM150.553 53.7727L146.233 47.5327H145.977H141.465V53.7727H136.281V31.3727H145.977C147.961 31.3727 149.678 31.7034 151.129 32.3647C152.601 33.026 153.732 33.9647 154.521 35.1807C155.31 36.3967 155.705 37.8367 155.705 39.5007C155.705 41.1647 155.3 42.6047 154.489 43.8207C153.7 45.0154 152.569 45.9327 151.097 46.5727L156.121 53.7727H150.553ZM150.457 39.5007C150.457 38.242 150.052 37.282 149.241 36.6207C148.43 35.938 147.246 35.5967 145.689 35.5967H141.465V43.4047H145.689C147.246 43.4047 148.43 43.0634 149.241 42.3807C150.052 41.698 150.457 40.738 150.457 39.5007ZM181.348 31.3727L171.652 53.7727H166.532L156.868 31.3727H162.468L169.284 47.3727L176.196 31.3727H181.348ZM200.562 49.6127V53.7727H183.219V31.3727H200.147V35.5327H188.371V40.3967H198.771V44.4287H188.371V49.6127H200.562ZM218.959 53.7727L214.639 47.5327H214.383H209.871V53.7727H204.687V31.3727H214.383C216.367 31.3727 218.085 31.7034 219.535 32.3647C221.007 33.026 222.138 33.9647 222.927 35.1807C223.717 36.3967 224.111 37.8367 224.111 39.5007C224.111 41.1647 223.706 42.6047 222.895 43.8207C222.106 45.0154 220.975 45.9327 219.503 46.5727L224.527 53.7727H218.959ZM218.863 39.5007C218.863 38.242 218.458 37.282 217.647 36.6207C216.837 35.938 215.653 35.5967 214.095 35.5967H209.871V43.4047H214.095C215.653 43.4047 216.837 43.0634 217.647 42.3807C218.458 41.698 218.863 40.738 218.863 39.5007ZM235.579 54.1567C233.808 54.1567 232.091 53.922 230.427 53.4527C228.784 52.962 227.461 52.3327 226.459 51.5647L228.219 47.6607C229.179 48.3647 230.32 48.93 231.643 49.3567C232.965 49.7834 234.288 49.9967 235.611 49.9967C237.083 49.9967 238.171 49.7834 238.875 49.3567C239.579 48.9087 239.931 48.322 239.931 47.5967C239.931 47.0634 239.717 46.626 239.291 46.2847C238.885 45.922 238.352 45.634 237.691 45.4207C237.051 45.2074 236.176 44.9727 235.067 44.7167C233.36 44.3114 231.963 43.906 230.875 43.5007C229.787 43.0954 228.848 42.4447 228.059 41.5487C227.291 40.6527 226.907 39.458 226.907 37.9647C226.907 36.6634 227.259 35.49 227.963 34.4447C228.667 33.378 229.723 32.5354 231.131 31.9167C232.56 31.298 234.299 30.9887 236.347 30.9887C237.776 30.9887 239.173 31.1594 240.539 31.5007C241.904 31.842 243.099 32.3327 244.123 32.9727L242.523 36.9087C240.453 35.7354 238.384 35.1487 236.315 35.1487C234.864 35.1487 233.787 35.3834 233.083 35.8527C232.4 36.322 232.059 36.9407 232.059 37.7087C232.059 38.4767 232.453 39.0527 233.243 39.4367C234.053 39.7994 235.28 40.162 236.923 40.5247C238.629 40.93 240.027 41.3354 241.115 41.7407C242.203 42.146 243.131 42.786 243.899 43.6607C244.688 44.5354 245.083 45.7194 245.083 47.2127C245.083 48.4927 244.72 49.666 243.995 50.7327C243.291 51.778 242.224 52.61 240.795 53.2287C239.365 53.8474 237.627 54.1567 235.579 54.1567Z" fill="url(#paint0_linear_12_11)"/>
<defs>
<linearGradient id="paint0_linear_12_11" x1="-5.90073e-06" y1="25.1363" x2="13.1435" y2="98.9961" gradientUnits="userSpaceOnUse">
<stop stop-color="#1F2F9F"/>
<stop offset="1" stop-color="#04B0D8"/>
</linearGradient>
</defs>
</svg>
