<svg width="22" height="12" viewBox="0 0 22 12" fill="none" xmlns="http://www.w3.org/2000/svg">
<path fill-rule="evenodd" clip-rule="evenodd" d="M5.75 1.5C3.40279 1.5 1.5 3.40279 1.5 5.75C1.5 8.09721 3.40279 10 5.75 10C6.34689 10 6.79496 9.8927 7.15677 9.7164C7.51923 9.53979 7.83603 9.27399 8.14303 8.89951C8.68306 8.24076 9.12624 7.34253 9.71019 6.15897C9.82693 5.92237 9.94929 5.67436 10.0792 5.41459C10.1955 5.18197 10.3089 4.95134 10.4207 4.72407C11.0014 3.5437 11.5373 2.45415 12.197 1.64951C12.6073 1.14899 13.0866 0.727289 13.6862 0.435154C14.2864 0.142697 14.9662 0 15.75 0C18.9256 0 21.5 2.57436 21.5 5.75C21.5 8.92564 18.9256 11.5 15.75 11.5C14.4562 11.5 13.2605 11.0716 12.2995 10.3497C11.9684 10.1009 11.9016 9.63072 12.1503 9.29954C12.3991 8.96836 12.8693 8.90156 13.2005 9.15034C13.9108 9.68398 14.7924 10 15.75 10C18.0972 10 20 8.09721 20 5.75C20 3.40279 18.0972 1.5 15.75 1.5C15.1531 1.5 14.705 1.6073 14.3432 1.7836C13.9808 1.96021 13.664 2.22601 13.357 2.60049C12.8169 3.25924 12.3738 4.15747 11.7898 5.34103C11.6731 5.57763 11.5507 5.82564 11.4208 6.08541C11.3045 6.31803 11.1911 6.54866 11.0793 6.77593C10.4986 7.9563 9.96268 9.04585 9.30304 9.85049C8.89272 10.351 8.41335 10.7727 7.81381 11.0648C7.2136 11.3573 6.53382 11.5 5.75 11.5C2.57436 11.5 0 8.92564 0 5.75C0 2.57436 2.57436 0 5.75 0C7.04384 0 8.23982 0.428231 9.20099 1.15038C9.53215 1.39919 9.59892 1.86935 9.35011 2.20051C9.1013 2.53167 8.63114 2.59843 8.29998 2.34962C7.58967 1.81595 6.70781 1.5 5.75 1.5Z" fill="#003682"/>
<rect x="4" y="5" width="3" height="1" fill="#003682"/>
<rect x="15" y="5" width="3" height="1" fill="#003682"/>
<rect x="16" y="7" width="3" height="1" transform="rotate(-90 16 7)" fill="#003682"/>
</svg>
