<svg width="21" height="22" viewBox="0 0 21 22" fill="none" xmlns="http://www.w3.org/2000/svg">
<path fill-rule="evenodd" clip-rule="evenodd" d="M10.1782 7C8.10716 7 6.42823 8.67893 6.42823 10.75C6.42823 12.8211 8.10716 14.5 10.1782 14.5C12.2493 14.5 13.9282 12.8211 13.9282 10.75C13.9282 8.67893 12.2493 7 10.1782 7ZM7.92823 10.75C7.92823 9.50736 8.93559 8.5 10.1782 8.5C11.4209 8.5 12.4282 9.50736 12.4282 10.75C12.4282 11.9926 11.4209 13 10.1782 13C8.93559 13 7.92823 11.9926 7.92823 10.75Z" fill="#003682"/>
<path fill-rule="evenodd" clip-rule="evenodd" d="M10.153 2.741e-07C9.7085 -7.05727e-06 9.33746 -1.31968e-05 9.03285 0.0207703C8.71575 0.0424059 8.41622 0.0890488 8.12583 0.209332C7.45201 0.48844 6.91665 1.02379 6.63755 1.69762C6.49224 2.04842 6.45289 2.41812 6.43786 2.81996C6.42578 3.14299 6.26276 3.41251 6.02217 3.55141C5.78159 3.69031 5.46667 3.69673 5.18089 3.54568C4.82536 3.35777 4.48551 3.20699 4.10906 3.15743C3.38595 3.06223 2.65464 3.25819 2.07601 3.70219C1.82665 3.89353 1.63649 4.1296 1.45921 4.3934C1.2889 4.64681 1.10339 4.96815 0.881164 5.35307L0.855909 5.39681C0.633673 5.78172 0.44815 6.10304 0.313844 6.37723C0.174031 6.66267 0.0646616 6.94539 0.0236352 7.25701C-0.0715633 7.98012 0.12439 8.71142 0.568387 9.29005C0.799505 9.59125 1.09995 9.81016 1.44039 10.0241C1.71417 10.1961 1.8661 10.4721 1.86609 10.75C1.86607 11.0278 1.71414 11.3038 1.4404 11.4758C1.09991 11.6897 0.799429 11.9087 0.568289 12.2099C0.124292 12.7885 -0.0716613 13.5198 0.0235374 14.2429C0.0645636 14.5545 0.173933 14.8373 0.313746 15.1227C0.44805 15.3969 0.63357 15.7182 0.855801 16.1031L0.881064 16.1469C1.10329 16.5318 1.2888 16.8531 1.45911 17.1065C1.6364 17.3703 1.82655 17.6064 2.07592 17.7977C2.65455 18.2417 3.38585 18.4377 4.10896 18.3425C4.48539 18.2929 4.82522 18.1422 5.18073 17.9543C5.46655 17.8032 5.78151 17.8096 6.02213 17.9486C6.26274 18.0875 6.42578 18.357 6.43786 18.6801C6.45289 19.0819 6.49225 19.4516 6.63754 19.8024C6.91665 20.4762 7.45201 21.0116 8.12583 21.2907C8.41622 21.411 8.71575 21.4576 9.03285 21.4792C9.33746 21.5 9.7085 21.5 10.153 21.5H10.2035C10.6479 21.5 11.019 21.5 11.3236 21.4792C11.6407 21.4576 11.9402 21.411 12.2306 21.2907C12.9044 21.0116 13.4398 20.4762 13.7189 19.8024C13.8642 19.4516 13.9035 19.0819 13.9186 18.68C13.9306 18.357 14.0937 18.0875 14.3342 17.9485C14.5748 17.8096 14.8898 17.8032 15.1756 17.9542C15.5311 18.1421 15.871 18.2929 16.2474 18.3424C16.9705 18.4376 17.7018 18.2417 18.2804 17.7977C18.5298 17.6063 18.7199 17.3703 18.8972 17.1065C19.0675 16.8531 19.253 16.5318 19.4752 16.1469L19.5005 16.1031C19.7227 15.7182 19.9083 15.3968 20.0426 15.1226C20.1824 14.8372 20.2918 14.5545 20.3328 14.2429C20.428 13.5197 20.232 12.7884 19.788 12.2098C19.5569 11.9086 19.2564 11.6897 18.916 11.4758C18.6422 11.3038 18.4903 11.0278 18.4903 10.7499C18.4904 10.4721 18.6423 10.1962 18.916 10.0242C19.2565 9.8103 19.557 9.59136 19.7881 9.29012C20.2321 8.71149 20.4281 7.98019 20.3329 7.25708C20.2919 6.94546 20.1825 6.66274 20.0427 6.3773C19.9084 6.10313 19.7229 5.78183 19.5007 5.39695L19.4754 5.35318C19.2532 4.96825 19.0676 4.64688 18.8973 4.39347C18.72 4.12967 18.5299 3.8936 18.2805 3.70225C17.7019 3.25826 16.9706 3.0623 16.2475 3.1575C15.871 3.20706 15.5312 3.35782 15.1757 3.54572C14.8899 3.69679 14.5749 3.69036 14.3343 3.55144C14.0937 3.41253 13.9306 3.14297 13.9186 2.81991C13.9035 2.41808 13.8642 2.0484 13.7189 1.69762C13.4398 1.02379 12.9044 0.48844 12.2306 0.209332C11.9402 0.0890489 11.6407 0.0424059 11.3236 0.0207703C11.019 -1.31968e-05 10.6479 -7.05727e-06 10.2035 2.741e-07H10.153ZM8.69986 1.59515C8.77701 1.56319 8.89423 1.53372 9.13496 1.51729C9.38242 1.50041 9.70201 1.5 10.1782 1.5C10.6544 1.5 10.974 1.50041 11.2215 1.51729C11.4622 1.53372 11.5794 1.56319 11.6566 1.59515C11.9629 1.72202 12.2062 1.96536 12.3331 2.27165C12.3731 2.36826 12.4063 2.51887 12.4196 2.87597C12.4492 3.66835 12.8582 4.43129 13.5843 4.85048C14.3104 5.26968 15.1756 5.2424 15.8766 4.87188C16.1926 4.7049 16.3396 4.65832 16.4433 4.64467C16.7719 4.6014 17.1044 4.69047 17.3674 4.89228C17.4336 4.94312 17.5178 5.02989 17.6523 5.23016C17.7907 5.43603 17.9508 5.7126 18.1889 6.125C18.4271 6.53741 18.5865 6.81438 18.6956 7.03713C18.8017 7.25382 18.8348 7.37007 18.8457 7.45287C18.889 7.78155 18.7999 8.11397 18.5981 8.37698C18.5344 8.45995 18.4206 8.56399 18.118 8.75414C17.4466 9.17595 16.9904 9.91155 16.9903 10.7499C16.9903 11.5883 17.4465 12.324 18.1179 12.7459C18.4205 12.936 18.5344 13.04 18.598 13.123C18.7998 13.386 18.8889 13.7184 18.8456 14.0471C18.8347 14.1299 18.8016 14.2461 18.6955 14.4628C18.5864 14.6855 18.427 14.9625 18.1889 15.3749C17.9508 15.7873 17.7906 16.0639 17.6522 16.2698C17.5177 16.47 17.4335 16.5568 17.3673 16.6076C17.1043 16.8095 16.7718 16.8985 16.4432 16.8553C16.3395 16.8416 16.1925 16.795 15.8766 16.6281C15.1755 16.2575 14.3102 16.2303 13.5842 16.6495C12.8582 17.0687 12.4492 17.8316 12.4196 18.624C12.4063 18.9811 12.3731 19.1317 12.3331 19.2284C12.2062 19.5346 11.9629 19.778 11.6566 19.9049C11.5794 19.9368 11.4622 19.9663 11.2215 19.9827C10.974 19.9996 10.6544 20 10.1782 20C9.70201 20 9.38242 19.9996 9.13496 19.9827C8.89423 19.9663 8.77701 19.9368 8.69986 19.9049C8.39357 19.778 8.15023 19.5346 8.02337 19.2284C7.98335 19.1317 7.95017 18.9811 7.93682 18.624C7.90718 17.8317 7.49819 17.0687 6.77212 16.6495C6.04606 16.2303 5.18084 16.2576 4.4798 16.6281C4.16387 16.7951 4.01685 16.8417 3.91317 16.8553C3.58448 16.8986 3.25207 16.8095 2.98906 16.6077C2.92281 16.5569 2.83867 16.4701 2.70408 16.2698C2.56573 16.064 2.40558 15.7874 2.16748 15.375C1.92938 14.9626 1.76993 14.6856 1.66082 14.4629C1.55468 14.2462 1.5216 14.1299 1.5107 14.0471C1.46743 13.7184 1.5565 13.386 1.75832 13.123C1.82198 13.0401 1.93583 12.936 2.23842 12.7459C2.90981 12.3241 3.36604 11.5884 3.36609 10.7501C3.36613 9.9116 2.90988 9.17587 2.23843 8.75398C1.93591 8.56389 1.82207 8.45987 1.75842 8.37691C1.5566 8.1139 1.46753 7.78149 1.5108 7.4528C1.5217 7.37001 1.55478 7.25375 1.66092 7.03707C1.77003 6.81431 1.92948 6.53734 2.16758 6.12493C2.40568 5.71253 2.56583 5.43596 2.70418 5.23009C2.83877 5.02983 2.9229 4.94305 2.98916 4.89222C3.25217 4.6904 3.58458 4.60133 3.91327 4.6446C4.01695 4.65825 4.16398 4.70483 4.47995 4.87184C5.18096 5.24235 6.04613 5.26962 6.77217 4.85045C7.4982 4.43128 7.90718 3.66837 7.93681 2.87602C7.95017 2.51889 7.98334 2.36827 8.02336 2.27165C8.15023 1.96536 8.39357 1.72202 8.69986 1.59515Z" fill="#003682"/>
</svg>
