<svg width="22" height="19" viewBox="0 0 22 19" fill="none" xmlns="http://www.w3.org/2000/svg">
<path fill-rule="evenodd" clip-rule="evenodd" d="M7.05036 1.12109e-06H14.4485C15.347 -2.8264e-05 16.0962 -5.2765e-05 16.691 0.0799135C17.3188 0.164318 17.8856 0.349989 18.341 0.805458C18.7965 1.26093 18.9822 1.82773 19.0666 2.45552C19.1465 3.05031 19.1465 3.79953 19.1465 4.69801V11.982L20.6591 13.5432L20.6629 13.5469L20.67 13.554L20.6779 13.562L20.6834 13.5677L20.6933 13.5781L20.704 13.5894L20.7082 13.594L20.7163 13.6029L20.7252 13.6131L20.7334 13.6228C20.736 13.626 20.7403 13.6312 20.7455 13.6378C21.117 14.0687 21.4486 14.712 21.4939 15.3551L21.4943 15.3589C21.4954 15.3693 21.4961 15.3777 21.4965 15.3825L21.4973 15.3952L21.498 15.4086L21.4985 15.4206L21.4986 15.4269L21.4988 15.4425L21.4989 15.4567L21.4989 15.4648L21.4989 15.4759L21.4987 15.4859L21.4985 15.4907C21.4985 15.5012 21.4986 15.5124 21.4986 15.5239C21.4988 15.6547 21.499 15.8429 21.4939 15.9234C21.4066 17.3056 20.305 18.4072 18.9228 18.4945C18.8356 18.5 18.7384 18.5 18.6123 18.5H2.88659C2.76042 18.5 2.66324 18.5 2.57601 18.4945C1.19381 18.4072 0.0922291 17.3056 0.00489652 15.9234C-0.00015527 15.8435 0.000142038 15.6569 0.000349998 15.5264C0.000369906 15.5139 0.00038898 15.502 0.000402451 15.4906L0.000262499 15.4859L7.83801e-05 15.4759L0 15.4648L5.72205e-06 15.4567L0.000101507 15.4425L0.000330746 15.4269L0.000481486 15.4206L0.000897765 15.4086L0.00158525 15.3952L0.00245148 15.3825C0.00282073 15.3777 0.00350845 15.3693 0.00464046 15.3589L0.00505459 15.3551C0.0503587 14.7121 0.381837 14.0687 0.753373 13.6378C0.758582 13.6311 0.762868 13.6259 0.765502 13.6228L0.773697 13.6131L0.782573 13.6029L0.790619 13.594L0.794888 13.5894L0.805538 13.5781L0.815401 13.5677L0.820988 13.562L0.828805 13.554L0.835908 13.547L0.839734 13.5432L2.35236 11.982L2.35236 4.69801C2.35233 3.79953 2.35231 3.05031 2.43228 2.45552C2.51668 1.82773 2.70235 1.26093 3.15782 0.805459C3.61329 0.349989 4.18009 0.164318 4.80789 0.0799135C5.40267 -5.2765e-05 6.15189 -2.8264e-05 7.05036 1.12109e-06ZM3.42 13.0357L1.90589 14.5985C1.67804 14.8525 1.51193 15.2252 1.50042 15.4763C1.50041 15.498 1.50039 15.5199 1.50037 15.5419C1.50031 15.5952 1.50025 15.649 1.50042 15.6992C1.50054 15.7364 1.50077 15.7686 1.50117 15.7943C1.50148 15.8141 1.50181 15.8246 1.50193 15.8282C1.54162 16.4564 2.04233 16.9578 2.6706 16.9975C2.70402 16.9996 2.74945 17 2.91011 17H18.5887C18.7494 17 18.7948 16.9996 18.8282 16.9975C19.4565 16.9578 19.9572 16.4571 19.9969 15.8288C19.9967 15.8324 19.9972 15.8235 19.9977 15.7941C19.9981 15.7684 19.9983 15.7361 19.9985 15.699C19.9987 15.6474 19.9986 15.5918 19.9986 15.537C19.9985 15.5166 19.9985 15.4963 19.9985 15.4763C19.987 15.2253 19.8209 14.8525 19.5929 14.5985L18.0789 13.0357H3.42ZM17.6465 11.5357V4.75C17.6465 3.78599 17.6449 3.13843 17.5799 2.65539C17.5179 2.19393 17.4107 1.99644 17.2804 1.86612C17.1501 1.7358 16.9526 1.62858 16.4911 1.56654C16.0081 1.5016 15.3605 1.5 14.3965 1.5H7.10237C6.13835 1.5 5.49079 1.5016 5.00776 1.56654C4.5463 1.62858 4.3488 1.7358 4.21848 1.86612C4.08816 1.99644 3.98094 2.19393 3.9189 2.65539C3.85396 3.13843 3.85236 3.78599 3.85236 4.75V11.5357H17.6465ZM20.4192 14.7738C20.4267 14.7714 20.4339 14.769 20.4408 14.7665C20.4436 14.7649 20.4464 14.7633 20.4493 14.7616C20.4393 14.7658 20.4292 14.7699 20.4192 14.7738ZM20.4657 14.7759C20.4716 14.7729 20.4774 14.7701 20.4831 14.7675C20.4857 14.7667 20.4883 14.766 20.491 14.7653C20.4825 14.7688 20.4741 14.7723 20.4657 14.7759ZM1.03349 14.7759C1.02766 14.773 1.02196 14.7702 1.01645 14.7677C1.01393 14.767 1.01135 14.7663 1.00872 14.7656C1.01702 14.769 1.02528 14.7724 1.03349 14.7759ZM1.08039 14.774C1.07002 14.77 1.05966 14.7658 1.04932 14.7615C1.0523 14.7632 1.05524 14.7649 1.05813 14.7665C1.06517 14.7691 1.07261 14.7716 1.08039 14.774ZM7.49942 15.25C7.49942 14.8358 7.83521 14.5 8.24942 14.5H13.2494C13.6636 14.5 13.9994 14.8358 13.9994 15.25C13.9994 15.6642 13.6636 16 13.2494 16H8.24942C7.83521 16 7.49942 15.6642 7.49942 15.25Z" fill="#003682"/>
<path d="M11.4994 3.5C11.4994 3.91422 11.1636 4.25 10.7494 4.25C10.3352 4.25 9.99942 3.91422 9.99942 3.5C9.99942 3.08579 10.3352 2.75 10.7494 2.75C11.1636 2.75 11.4994 3.08579 11.4994 3.5Z" fill="#003682"/>
</svg>
