<svg width="24" height="24" viewBox="0 0 24 24" fill="none" xmlns="http://www.w3.org/2000/svg">
<path d="M18.8833 15.6954L20.7285 10.1599C22.3405 5.3241 23.1464 2.90621 21.8701 1.6299C20.5938 0.353587 18.1759 1.15955 13.3401 2.77147L7.80461 4.61665C3.90168 5.91762 1.95021 6.56811 1.39566 7.52201C0.868113 8.42946 0.868112 9.55022 1.39566 10.4577C1.95021 11.4116 3.90168 12.0621 7.80461 13.363C8.43128 13.5719 8.74462 13.6764 9.00653 13.8517C9.26034 14.0216 9.47838 14.2397 9.6483 14.4935C9.82363 14.7554 9.92808 15.0687 10.137 15.6954C11.4379 19.5983 12.0884 21.5498 13.0423 22.1043C13.9498 22.6319 15.0705 22.6319 15.978 22.1043C16.9319 21.5498 17.5824 19.5983 18.8833 15.6954Z" stroke="#003682" stroke-width="1.5"/>
<path d="M16.2378 8.3222C16.5324 8.03094 16.535 7.55607 16.2437 7.26156C15.9525 6.96705 15.4776 6.96442 15.1831 7.25568L16.2378 8.3222ZM10.2727 14.2216L16.2378 8.3222L15.1831 7.25568L9.21798 13.155L10.2727 14.2216Z" fill="#003682"/>
</svg>
