<svg width="22" height="22" viewBox="0 0 22 22" fill="none" xmlns="http://www.w3.org/2000/svg">
<path d="M16.5 13.75C16.5 14.1642 16.1642 14.5 15.75 14.5H10.75C10.3358 14.5 10 14.1642 10 13.75C10 13.3358 10.3358 13 10.75 13H15.75C16.1642 13 16.5 13.3358 16.5 13.75Z" fill="#003682"/>
<path d="M6.23014 8.17383C5.91193 7.90866 5.43901 7.95165 5.17383 8.26986C4.90866 8.58807 4.95165 9.06099 5.26986 9.32617L5.50427 9.5215C6.16283 10.0703 6.59346 10.4315 6.86966 10.7374C7.13194 11.0278 7.15693 11.164 7.15693 11.25C7.15693 11.336 7.13194 11.4722 6.86966 11.7626C6.59346 12.0685 6.16283 12.4297 5.50427 12.9785L5.26986 13.1738C4.95165 13.439 4.90866 13.9119 5.17383 14.2301C5.43901 14.5483 5.91193 14.5913 6.23014 14.3262L6.50656 14.0958C7.11151 13.5917 7.62651 13.1626 7.98293 12.7679C8.36149 12.3487 8.65693 11.8666 8.65693 11.25C8.65693 10.6334 8.36149 10.1513 7.98293 9.73209C7.62651 9.33738 7.11151 8.90826 6.50656 8.40418L6.23014 8.17383Z" fill="#003682"/>
<path fill-rule="evenodd" clip-rule="evenodd" d="M10.6926 2.11539e-07H10.8074C13.1158 -1.26631e-05 14.9248 -2.28584e-05 16.3363 0.189747C17.781 0.383986 18.9211 0.789327 19.8159 1.68414C20.7107 2.57895 21.116 3.71897 21.3103 5.16371C21.5 6.57519 21.5 8.38423 21.5 10.6926V10.8074C21.5 13.1158 21.5 14.9248 21.3103 16.3363C21.116 17.781 20.7107 18.9211 19.8159 19.8159C18.9211 20.7107 17.781 21.116 16.3363 21.3103C14.9248 21.5 13.1158 21.5 10.8074 21.5H10.6926C8.38423 21.5 6.57519 21.5 5.16371 21.3103C3.71897 21.116 2.57895 20.7107 1.68414 19.8159C0.789327 18.9211 0.383986 17.781 0.189747 16.3363C-2.28584e-05 14.9248 -1.26631e-05 13.1158 2.11538e-07 10.8074V10.6926C-1.26631e-05 8.38423 -2.28584e-05 6.57519 0.189747 5.16371C0.383986 3.71897 0.789327 2.57895 1.68414 1.68414C2.57895 0.789327 3.71897 0.383986 5.16371 0.189747C6.57519 -2.28584e-05 8.38423 -1.26631e-05 10.6926 2.11539e-07ZM5.36358 1.67637C4.08517 1.84825 3.31445 2.17514 2.7448 2.7448C2.17514 3.31445 1.84825 4.08517 1.67637 5.36358C1.50159 6.66356 1.5 8.37178 1.5 10.75C1.5 13.1282 1.50159 14.8364 1.67637 16.1364C1.84825 17.4148 2.17514 18.1855 2.7448 18.7552C3.31445 19.3249 4.08517 19.6518 5.36358 19.8236C6.66356 19.9984 8.37178 20 10.75 20C13.1282 20 14.8364 19.9984 16.1364 19.8236C17.4148 19.6518 18.1855 19.3249 18.7552 18.7552C19.3249 18.1855 19.6518 17.4148 19.8236 16.1364C19.9984 14.8364 20 13.1282 20 10.75C20 8.37178 19.9984 6.66356 19.8236 5.36358C19.6518 4.08517 19.3249 3.31445 18.7552 2.7448C18.1855 2.17514 17.4148 1.84825 16.1364 1.67637C14.8364 1.50159 13.1282 1.5 10.75 1.5C8.37178 1.5 6.66356 1.50159 5.36358 1.67637Z" fill="#003682"/>
</svg>
