<svg width="22" height="19" viewBox="0 0 22 19" fill="none" xmlns="http://www.w3.org/2000/svg">
<path d="M6.44293 4.43399C7.15677 2.71031 8.85474 1.5 10.8336 1.5C12.8125 1.5 14.5105 2.71031 15.2243 4.43399C15.3828 4.81668 15.8215 4.99844 16.2042 4.83995C16.5869 4.68146 16.7687 4.24275 16.6102 3.86005C15.6723 1.5954 13.4402 0 10.8336 0C8.2271 0 5.99495 1.5954 5.05707 3.86005C4.89859 4.24275 5.08034 4.68146 5.46304 4.83995C5.84573 4.99844 6.28444 4.81668 6.44293 4.43399Z" fill="#003682"/>
<path d="M5.75 13.75C5.75 14.3023 5.30229 14.75 4.75 14.75C4.19772 14.75 3.75 14.3023 3.75 13.75C3.75 13.1977 4.19772 12.75 4.75 12.75C5.30229 12.75 5.75 13.1977 5.75 13.75Z" fill="#003682"/>
<path d="M8.75 13.75C8.75 14.3023 8.30229 14.75 7.75 14.75C7.19772 14.75 6.75 14.3023 6.75 13.75C6.75 13.1977 7.19772 12.75 7.75 12.75C8.30229 12.75 8.75 13.1977 8.75 13.75Z" fill="#003682"/>
<path d="M12 13.75C12 13.3358 12.3358 13 12.75 13H16.75C17.1642 13 17.5 13.3358 17.5 13.75C17.5 14.1642 17.1642 14.5 16.75 14.5H12.75C12.3358 14.5 12 14.1642 12 13.75Z" fill="#003682"/>
<path fill-rule="evenodd" clip-rule="evenodd" d="M1.3779 2.09882C1.73754 1.89331 2.19568 2.01826 2.40119 2.3779L6.18525 9H15.3148L19.0988 2.3779C19.3043 2.01826 19.7625 1.89331 20.1221 2.09882C20.4817 2.30433 20.6067 2.76247 20.4012 3.1221L17.0424 9.00005C17.8349 9.00062 18.5036 9.00718 19.0445 9.07991C19.6723 9.16432 20.2391 9.34999 20.6945 9.80546C21.15 10.2609 21.3357 10.8277 21.4201 11.4555C21.5001 12.0503 21.5 12.7995 21.5 13.698V13.802C21.5 14.7005 21.5001 15.4497 21.4201 16.0445C21.3357 16.6723 21.15 17.2391 20.6945 17.6945C20.2391 18.15 19.6723 18.3357 19.0445 18.4201C18.4498 18.5001 17.7006 18.5 16.8022 18.5H4.69801C3.79962 18.5 3.05026 18.5001 2.45552 18.4201C1.82773 18.3357 1.26093 18.15 0.80546 17.6945C0.34999 17.2391 0.164319 16.6723 0.0799144 16.0445C-5.10737e-05 15.4497 -2.73648e-05 14.7005 1.06708e-06 13.802V13.698C-2.73648e-05 12.7995 -5.10737e-05 12.0503 0.0799144 11.4555C0.164319 10.8277 0.34999 10.2609 0.80546 9.80546C1.26093 9.34999 1.82773 9.16432 2.45552 9.07991C2.99646 9.00718 3.66513 9.00062 4.45765 9.00005L1.09882 3.1221C0.893313 2.76247 1.01826 2.30433 1.3779 2.09882ZM15.7354 10.5C15.7447 10.5002 15.7539 10.5002 15.7632 10.5H16.75C17.714 10.5 18.3616 10.5016 18.8446 10.5665C19.3061 10.6286 19.5036 10.7358 19.6339 10.8661C19.7642 10.9964 19.8714 11.1939 19.9335 11.6554C19.9984 12.1384 20 12.786 20 13.75C20 14.714 19.9984 15.3616 19.9335 15.8446C19.8714 16.3061 19.7642 16.5036 19.6339 16.6339C19.5036 16.7642 19.3061 16.8714 18.8446 16.9335C18.3616 16.9984 17.714 17 16.75 17H4.75C3.78599 17 3.13843 16.9984 2.6554 16.9335C2.19393 16.8714 1.99644 16.7642 1.86612 16.6339C1.7358 16.5036 1.62858 16.3061 1.56654 15.8446C1.5016 15.3616 1.5 14.714 1.5 13.75C1.5 12.786 1.5016 12.1384 1.56654 11.6554C1.62858 11.1939 1.7358 10.9964 1.86612 10.8661C1.99644 10.7358 2.19393 10.6286 2.6554 10.5665C3.13843 10.5016 3.78599 10.5 4.75 10.5H5.73684C5.74607 10.5002 5.75531 10.5002 5.76456 10.5H15.7354Z" fill="#003682"/>
<path d="M10.8344 4C9.81203 4 8.94714 4.68244 8.67408 5.6182C8.55805 6.01583 8.14164 6.24411 7.74401 6.12808C7.34638 6.01205 7.1181 5.59564 7.23413 5.19801C7.68886 3.63969 9.12754 2.5 10.8344 2.5C12.5412 2.5 13.9799 3.63969 14.4346 5.19801C14.5506 5.59564 14.3223 6.01205 13.9247 6.12808C13.5271 6.24411 13.1107 6.01583 12.9947 5.6182C12.7216 4.68244 11.8567 4 10.8344 4Z" fill="#003682"/>
<path d="M10.834 6.75C11.3863 6.75 11.834 6.30228 11.834 5.75C11.834 5.19772 11.3863 4.75 10.834 4.75C10.2817 4.75 9.83399 5.19772 9.83399 5.75C9.83399 6.30228 10.2817 6.75 10.834 6.75Z" fill="#003682"/>
</svg>
