<svg width="22" height="22" viewBox="0 0 22 22" fill="none" xmlns="http://www.w3.org/2000/svg">
<path fill-rule="evenodd" clip-rule="evenodd" d="M8 0C8.41421 0 8.75 0.335786 8.75 0.75V2.01272C9.216 2.00376 9.71536 2.00111 10.25 2.00032V0.75C10.25 0.335786 10.5858 0 11 0C11.4142 0 11.75 0.335786 11.75 0.75V2.00032C12.2846 2.00111 12.784 2.00376 13.25 2.01272V0.75C13.25 0.335786 13.5858 0 14 0C14.4142 0 14.75 0.335786 14.75 0.75V2.07709C15.0099 2.09691 15.2561 2.12182 15.489 2.15313C16.6614 2.31076 17.6104 2.64288 18.3588 3.39124C19.1071 4.13961 19.4392 5.08855 19.5969 6.26098C19.6282 6.4939 19.6531 6.74006 19.6729 7H21C21.4142 7 21.75 7.33579 21.75 7.75C21.75 8.16421 21.4142 8.5 21 8.5H19.7373C19.7462 8.966 19.7489 9.46536 19.7497 10H21C21.4142 10 21.75 10.3358 21.75 10.75C21.75 11.1642 21.4142 11.5 21 11.5H19.7497C19.7489 12.0346 19.7462 12.534 19.7373 13H21C21.4142 13 21.75 13.3358 21.75 13.75C21.75 14.1642 21.4142 14.5 21 14.5H19.6729C19.6531 14.7599 19.6282 15.0061 19.5969 15.239C19.4392 16.4114 19.1071 17.3604 18.3588 18.1088C17.6104 18.8571 16.6614 19.1892 15.489 19.3469C15.2561 19.3782 15.0099 19.4031 14.75 19.4229V20.75C14.75 21.1642 14.4142 21.5 14 21.5C13.5858 21.5 13.25 21.1642 13.25 20.75V19.4873C12.784 19.4962 12.2846 19.4989 11.75 19.4997V20.75C11.75 21.1642 11.4142 21.5 11 21.5C10.5858 21.5 10.25 21.1642 10.25 20.75V19.4997C9.71536 19.4989 9.216 19.4962 8.75 19.4873V20.75C8.75 21.1642 8.41421 21.5 8 21.5C7.58579 21.5 7.25 21.1642 7.25 20.75V19.4229C6.99006 19.4031 6.7439 19.3782 6.51098 19.3469C5.33855 19.1892 4.38961 18.8571 3.64124 18.1088C2.89288 17.3604 2.56076 16.4114 2.40313 15.239C2.37182 15.0061 2.34691 14.7599 2.32709 14.5H1C0.585786 14.5 0.25 14.1642 0.25 13.75C0.25 13.3358 0.585786 13 1 13H2.26272C2.25376 12.534 2.25111 12.0346 2.25032 11.5H1C0.585786 11.5 0.25 11.1642 0.25 10.75C0.25 10.3358 0.585786 10 1 10H2.25032C2.25111 9.46536 2.25376 8.966 2.26272 8.5H1C0.585786 8.5 0.25 8.16421 0.25 7.75C0.25 7.33579 0.585786 7 1 7H2.32709C2.34691 6.74006 2.37182 6.4939 2.40313 6.26098C2.56076 5.08855 2.89288 4.13961 3.64124 3.39124C4.38961 2.64288 5.33855 2.31076 6.51098 2.15313C6.7439 2.12182 6.99006 2.09691 7.25 2.07709V0.75C7.25 0.335786 7.58579 0 8 0ZM6.71085 3.63976C5.70476 3.77502 5.12511 4.02869 4.7019 4.4519C4.27869 4.87511 4.02502 5.45476 3.88976 6.46085C3.75159 7.48851 3.75 8.84318 3.75 10.75C3.75 12.6568 3.75159 14.0115 3.88976 15.0392C4.02502 16.0452 4.27869 16.6249 4.7019 17.0481C5.12511 17.4713 5.70476 17.725 6.71085 17.8602C7.73851 17.9984 9.09318 18 11 18C12.9068 18 14.2615 17.9984 15.2892 17.8602C16.2952 17.725 16.8749 17.4713 17.2981 17.0481C17.7213 16.6249 17.975 16.0452 18.1102 15.0392C18.2484 14.0115 18.25 12.6568 18.25 10.75C18.25 8.84318 18.2484 7.48851 18.1102 6.46085C17.975 5.45476 17.7213 4.87511 17.2981 4.4519C16.8749 4.02869 16.2952 3.77502 15.2892 3.63976C14.2615 3.50159 12.9068 3.5 11 3.5C9.09318 3.5 7.73851 3.50159 6.71085 3.63976ZM8.95063 5H13.0494C13.7142 4.99996 14.2871 4.99993 14.7458 5.06161C15.2375 5.1277 15.7087 5.27676 16.091 5.65901C16.4732 6.04126 16.6223 6.51252 16.6884 7.00416C16.7501 7.4629 16.75 8.03576 16.75 8.70063V12.7994C16.75 13.4642 16.7501 14.0371 16.6884 14.4958C16.6223 14.9875 16.4732 15.4587 16.091 15.841C15.7087 16.2232 15.2375 16.3723 14.7458 16.4384C14.2871 16.5001 13.7142 16.5 13.0494 16.5H8.95063C8.28576 16.5 7.7129 16.5001 7.25416 16.4384C6.76252 16.3723 6.29126 16.2232 5.90901 15.841C5.52676 15.4587 5.3777 14.9875 5.31161 14.4958C5.24993 14.0371 5.24996 13.4642 5.25 12.7994V8.70063C5.24996 8.03576 5.24993 7.4629 5.31161 7.00416C5.3777 6.51252 5.52676 6.04126 5.90901 5.65901C6.29126 5.27676 6.76252 5.1277 7.25416 5.06161C7.7129 4.99993 8.28576 4.99996 8.95063 5ZM7.45403 6.54823C7.12872 6.59197 7.02676 6.66258 6.96967 6.71967C6.91258 6.77676 6.84197 6.87872 6.79823 7.20403C6.75159 7.55091 6.75 8.02169 6.75 8.75V12.75C6.75 13.4783 6.75159 13.9491 6.79823 14.296C6.84197 14.6213 6.91258 14.7232 6.96967 14.7803C7.02676 14.8374 7.12872 14.908 7.45403 14.9518C7.80091 14.9984 8.27169 15 9 15H13C13.7283 15 14.1991 14.9984 14.546 14.9518C14.8713 14.908 14.9732 14.8374 15.0303 14.7803C15.0874 14.7232 15.158 14.6213 15.2018 14.296C15.2484 13.9491 15.25 13.4783 15.25 12.75V8.75C15.25 8.02169 15.2484 7.55091 15.2018 7.20403C15.158 6.87872 15.0874 6.77676 15.0303 6.71967C14.9732 6.66258 14.8713 6.59197 14.546 6.54823C14.1991 6.50159 13.7283 6.5 13 6.5H9C8.27169 6.5 7.80091 6.50159 7.45403 6.54823Z" fill="#003682"/>
</svg>
